{
  "Topic": {
    "TopicId": "wuznjcixz06r6o5jfngjwg",
    "ForumId": "24",
    "Title": "Creating a Game with Audio Using CLI ONLY (This includes everything, from installing npm to submitting the game to the site.)",
    "LastUpdated": "2018-04-02T19:24:20.8897216Z",
    "ReplyCount": 0
  },
  "Posts": [
    {
      "PostId": "55679205-4f64-4eca-8603-057aa0a44611",
      "UserId": 318253,
      "Username": "K.V.",
      "AvatarUrl": "https://i.imgur.com/mBf7TBeb.png",
      "UserAvatar": null,
      "UserGravatar": null,
      "EditableText": "Using Linux Mint 18.3\r\n\r\n```\r\nkv@kv-ideapad2 ~ $ sudo apt-get update\r\nkv@kv-ideapad2 ~ $ sudo apt-get install npm\r\nReading package lists... Done\r\nBuilding dependency tree       \r\nReading state information... Done\r\nnpm is already the newest version (3.5.2-0ubuntu4).\r\n0 upgraded, 0 newly installed, 0 to remove and 4 not upgraded.\r\n\r\nkv@kv-ideapad2 ~ $ sudo npm install squiffy -g\r\nnpm WARN deprecated minimatch@2.0.10: Please update to minimatch 3.0.2 or higher to avoid a RegExp DoS issue\r\n/usr/local/bin/squiffy -> /usr/local/lib/node_modules/squiffy/squiffy.js\r\n/usr/local/lib\r\n└── squiffy@5.1.2 \r\n\r\nkv@kv-ideapad2 ~ $ squiffy\r\n/usr/bin/env: ‘node\\r’: No such file or directory\r\n\r\n\r\nkv@kv-ideapad2 ~ $ sudo apt-get install dos2unix\r\nReading package lists... Done\r\nBuilding dependency tree       \r\nReading state information... Done\r\nThe following NEW packages will be installed:\r\n  dos2unix\r\n0 upgraded, 1 newly installed, 0 to remove and 4 not upgraded.\r\nNeed to get 68.7 kB of archives.\r\nAfter this operation, 306 kB of additional disk space will be used.\r\nGet:1 http://archive.ubuntu.com/ubuntu xenial/universe amd64 dos2unix amd64 6.0.4-1 [68.7 kB]\r\nFetched 68.7 kB in 4s (16.8 kB/s)   \r\nSelecting previously unselected package dos2unix.\r\n(Reading database ... 257116 files and directories currently installed.)\r\nPreparing to unpack .../dos2unix_6.0.4-1_amd64.deb ...\r\nUnpacking dos2unix (6.0.4-1) ...\r\nProcessing triggers for man-db (2.7.5-1) ...\r\nSetting up dos2unix (6.0.4-1) ...\r\n\r\n\r\nkv@kv-ideapad2 ~ $ sudo dos2unix /usr/local/lib/node_modules/squiffy/squiffy.js \r\ndos2unix: converting file /usr/local/lib/node_modules/squiffy/squiffy.js to Unix format ...\r\nkv@kv-ideapad2 ~ $ squiffy\r\nSquiffy 5.1.2\r\nCompiles a Squiffy script file into HTML and JavaScript.\r\nFor help, see http://docs.textadventures.co.uk/squiffy/\r\nUsage: /usr/local/bin/squiffy filename.squiffy [options]\r\n\r\nOptions:\r\n  -c, --cdn     Use CDN for jQuery                                                          \r\n  -s, --serve   Start HTTP server after compiling                                           \r\n  -p, --port    Port for HTTP server (only with --serve)                                    \r\n  --scriptonly  Only generate JavaScript file (and optionally specify a name)               \r\n  --pluginname  Specify the jQuery plugin name instead of .questkit (only with --scriptonly)\r\n  --zip         Create zip file                                                             \r\n\r\nNot enough non-option arguments: got 0, need at least 1\r\n\r\n\r\nkv@kv-ideapad2 ~ $ cd Documents/\r\n\r\nkv@kv-ideapad2 ~/Documents/audio_game_squiffycli $ ffmpeg -f pulse -i default sndeffect.ogg\r\nffmpeg version 2.8.11-0ubuntu0.16.04.1 Copyright (c) 2000-2017 the FFmpeg developers\r\n  built with gcc 5.4.0 (Ubuntu 5.4.0-6ubuntu1~16.04.4) 20160609\r\n  \r\n  ...\r\n  \r\n  libavutil      54. 31.100 / 54. 31.100\r\n  libavcodec     56. 60.100 / 56. 60.100\r\n  libavformat    56. 40.101 / 56. 40.101\r\n  libavdevice    56.  4.100 / 56.  4.100\r\n  libavfilter     5. 40.101 /  5. 40.101\r\n  libavresample   2.  1.  0 /  2.  1.  0\r\n  libswscale      3.  1.101 /  3.  1.101\r\n  libswresample   1.  2.101 /  1.  2.101\r\n  libpostproc    53.  3.100 / 53.  3.100\r\nGuessed Channel Layout for  Input Stream #0.0 : stereo\r\nInput #0, pulse, from 'default':\r\n  Duration: N/A, start: 1522693606.088527, bitrate: 1536 kb/s\r\n    Stream #0:0: Audio: pcm_s16le, 48000 Hz, 2 channels, s16, 1536 kb/s\r\nOutput #0, ogg, to 'output.ogg':\r\n  Metadata:\r\n    encoder         : Lavf56.40.101\r\n    Stream #0:0: Audio: vorbis (libvorbis), 48000 Hz, stereo, fltp\r\n    Metadata:\r\n      encoder         : Lavc56.60.100 libvorbis\r\nStream mapping:\r\n  Stream #0:0 -> #0:0 (pcm_s16le (native) -> vorbis (libvorbis))\r\nPress [q] to stop, [?] for help\r\n[output stream 0:0 @ 0x1c2a520] 100 buffers queued in output stream 0:0, something may be wrong.\r\nsize=      31kB time=00:00:02.38 bitrate= 106.5kbits/s    \r\nvideo:0kB audio:27kB subtitle:0kB other streams:0kB global headers:4kB muxing overhead: 15.323137%\r\nExiting normally, received signal 2.\r\n\r\n\r\n\r\nkv@kv-ideapad2 ~/Documents $ mkdir audio_game_squiffycli\r\nkv@kv-ideapad2 ~/Documents $ mv sndeffect.ogg audio_game_squiffycli/\r\nkv@kv-ideapad2 ~/Documents $ cd audio_game_squiffycli/\r\nkv@kv-ideapad2 ~/Documents/audio_game_squiffycli $ ls\r\nsndeffect.ogg\r\n\r\nkv@kv-ideapad2 ~/Documents/audio_game_squiffycli $ echo -e \"[[start]]:\\n    ogg = new Audio();\\n    ogg.src = \\\"sndeffect.ogg\\\";\\n    ogg.load();\\n    ogg.controls = true;\\n    ogg.play();\\n    jQuery(\\\"#squiffy-container\\\").append(ogg);\\nHello.\" > game.squiffy\r\nkv@kv-ideapad2 ~/Documents/audio_game_squiffycli $ cat game.squiffy \r\n[[start]]:\r\n    ogg = new Audio();\r\n    ogg.src = \"sndeffect.ogg\";\r\n    ogg.load();\r\n    ogg.controls = true;\r\n    ogg.play();\r\n    jQuery(\"#squiffy-container\").append(ogg);\r\nHello.\r\n\r\nkv@kv-ideapad2 ~/Documents/audio_game_squiffycli $ squiffy game.squiffy -s\r\nSquiffy 5.1.2\r\nLoading /home/kv/Documents/audio_game_squiffycli/game.squiffy\r\nWriting story.js\r\nWriting index.html\r\nWriting style.css\r\nDone.\r\nStarted http://localhost:8282/\r\n^C\r\nkv@kv-ideapad2 ~/Documents/audio_game_squiffycli $ 7za a audio_game_squiffycli.zip *\r\n\r\n7-Zip (A) [64] 9.20  Copyright (c) 1999-2010 Igor Pavlov  2010-11-18\r\np7zip Version 9.20 (locale=en_US.UTF-8,Utf16=on,HugeFiles=on,2 CPUs)\r\nScanning\r\n\r\nCreating archive audio_game_squiffycli.zip\r\n\r\nCompressing  game.squiffy      \r\nCompressing  index.html      \r\nCompressing  jquery.min.js      \r\nCompressing  sndeffect.ogg      \r\nCompressing  story.js      \r\nCompressing  style.css      \r\n\r\nEverything is Ok\r\n\r\nkv@kv-ideapad2 ~/Documents/audio_game_squiffycli $ ls\r\naudio_game_squiffycli.zip  game.squiffy  index.html  jquery.min.js  sndeffect.ogg  story.js  style.css\r\n\r\n\r\nkv@kv-ideapad2 ~/Documents/audio_game_squiffycli $ elinks http://textadventures.co.uk/submit/submitfile\r\n                                                                                                                                                    Submit a Game (1/2) \r\n   Link: manifest                                                                                                                                                       \r\n   Toggle navigation  [IMG]                                                                                                                                             \r\n                                                                                                                                                                        \r\n     * Play                                                                                                                                                             \r\n     * Create                                                                                                                                                           \r\n     * Forums                                                                                                                                                           \r\n                                                                                                                                                                        \r\n   [IMG] Help! My Profile Log off  (0)                                                                                                                                  \r\n                                                                                                                                                                        \r\n     * My Games                                                                                                                                                         \r\n     * Quest                                                                                                                                                            \r\n     * Squiffy                                                                                                                                                          \r\n     * Upload Game                                                                                                                                                      \r\n                                                                                                                                                                        \r\nSubmit a Game to textadventures.co.uk                                                                                                                                   \r\n                                                                                                                                                                        \r\n   Game files we accept:                                                                                                                                                \r\n                                                                                                                                                                        \r\n     * Games written for the Quest text adventure game system - file types .quest, .cas                                                                                 \r\n     * HTML text-based games (e.g. output from Squiffy, Twine, Inform etc.) - file types .html, .zip                                                                    \r\n     * Inform Z-machine or Blorb games - file types .z5, .z8, .ulx, .zblorb, .gblorb                                                                                    \r\n                                                                                                                                                                        \r\n   Any other type of file or game will be deleted. All uploads are checked by a moderator. If you have any questions before uploading, please contact us.               \r\n                                                                                                                                                                        \r\n   Want to know more? Find out more about submitting a game                                                                                                             \r\n                                                                                                                                                                        \r\n   Submitting an update? This page is for submitting new games only. To submit an update, go to your game listing first and click the \"Edit this game\" button.          \r\n                                                                                                                                                                        \r\n   Submitting a Quest game? If your game is created using Quest 5, it must be a .quest file. To create one in the Editor, click the Tools menu and then Publish.        \r\n                                                                                                                                                                        \r\n   Submitting an HTML game? You can either upload a single self-contained .html file, or a .zip file containing all HTML, graphics and stylesheets your game            \r\n   requires.                                                                                                                                                            \r\n                                                                                                                                                                        \r\n   By uploading a game here, you agree to the following:                                                                                                                \r\n                                                                                                                                                                        \r\n     * you are the author of this game, or have the author's permission to upload it for them                                                                           \r\n     * if there is any copyrighted material in the game, you have permission to use it                                                                                  \r\n     * we can distribute this game on textadventures.co.uk and activelit.com                                                                                            \r\n                                                                                                                                                                        \r\n   In return, we promise:                                                                                                                                               \r\n                                                                                                                                                                        \r\n     * you keep all the copyright in the game                                                                                                                           \r\n     * we will use your submission solely to make it available on our websites, and always freely                                                                       \r\n            \r\n                                                                                                                                                    Submit a Game (2/2) \r\n     * we will never sell or modify your game                                                                                                                           \r\n     * you'll always be credited as the author                                                                                                                          \r\n                                                                                                                                                                        \r\n   _game_squiffycli.zip_                                                                                                                                                \r\n   Upload                                                                                                                                                               \r\n                                                                                                                                                                        \r\n   ──────────────────────────────────────────────────────────────────────────────────────────────────────────────────────────────────────────────────────────────────   \r\n                                                                                                                                                                        \r\n    Connect                                                                                                                                                             \r\n                                                                                                                                                                        \r\n   [IMG] Follow us on Facebook                                                                                                                                          \r\n   [IMG] Follow @TextAdv on Twitter                                                                                                                                     \r\n                                                                                                                                                                        \r\n    Products                                                                                                                                                            \r\n                                                                                                                                                                        \r\n   Quest                                                                                                                                                                \r\n   Squiffy                                                                                                                                                              \r\n   ActiveLit                                                                                                                                                            \r\n                                                                                                                                                                        \r\n    Resources                                                                                                                                                           \r\n                                                                                                                                                                        \r\n   Documentation                                                                                                                                                        \r\n   Blog                                                                                                                                                                 \r\n   GitHub                                                                                                                                                               \r\n                                                                                                                                                                        \r\n    Support                                                                                                                                                             \r\n                                                                                                                                                                        \r\n   Forums                                                                                                                                                               \r\n                                                                                                                                                                        \r\n   ──────────────────────────────────────────────────────────────────────────────────────────────────────────────────────────────────────────────────────────────────   \r\n                                                                                                                                                                        \r\n   © 2018 textadventures.co.uk · Privacy · Help · Contact us · Submit a game                                                                                            \r\n\r\n\r\n\r\n                                                                                                                                                     Game Details (2/2) \r\n   Publish                                                                                                                                                              \r\n   By ticking the box below, you agree to the following:                                                                                                                \r\n                                                                                                                                                                        \r\n     * you are the author of this game, or have the author's permission to upload it for them                                                                           \r\n     * if there is any copyrighted material in the game, you have permission to use it                                                                                  \r\n     * we can distribute this game on textadventures.co.uk and activelit.com                                                                                            \r\n                                                                                                                                                                        \r\n   In return, we promise:                                                                                                                                               \r\n                                                                                                                                                                        \r\n     * you keep all the copyright in the game                                                                                                                           \r\n     * we will use your submission solely to make it available on our websites, and always freely                                                                       \r\n     * we will never sell or modify your game                                                                                                                           \r\n     * you'll always be credited as the author                                                                                                                          \r\n                                                                                                                                                                        \r\n   [X] I agree to the above terms and conditions                                                                                                                        \r\n                                                                                                                                                                        \r\n   Publish                                                                                                                                                              \r\n                                                                                                                                                                        \r\n   ──────────────────────────────────────────────────────────────────────────────────────────────────────────────────────────────────────────────────────────────────   \r\n                                                                                                                                                                        \r\n    Connect                                                                                                                                                             \r\n                                                                                                                                                                        \r\n   [IMG] Follow us on Facebook                                                                                                                                          \r\n   [IMG] Follow @TextAdv on Twitter                                                                                                                                     \r\n                                                                                                                                                                        \r\n    Products                                                                                                                                                            \r\n                                                                                                                                                                        \r\n   Quest                                                                                                                                                                \r\n   Squiffy                                                                                                                                                              \r\n   ActiveLit                                                                                                                                                            \r\n                                                                                                                                                                        \r\n    Resources                                                                                                                                                           \r\n                                                                                                                                                                        \r\n   Documentation                                                                                                                                                        \r\n   Blog                                                                                                                                                                 \r\n   GitHub                                                                                                                                                               \r\n                                                                                                                                                                        \r\n    Support                                                                                                                                                             \r\n                                                                                                                                                                        \r\n   Forums                                                                                                                                                               \r\n                                                                                                                                                                        \r\n   ──────────────────────────────────────────────────────────────────────────────────────────────────────────────────────────────────────────────────────────────────   \r\n                                                                                                                                                                        \r\nPost form to http://textadventures.co.uk/submit/gamedetails                                                                                                            \r\n\r\n\r\nkv@kv-ideapad2 ~/Documents/audio_game_squiffycli $ \r\n```\r\n\r\n---\r\nhttp://textadventures.co.uk/games/view/ra0-jwthzk6ccbohn8or8w/squiffy-audio-example\r\n\r\n---\r\nI was bored.  What can I say?",
      "EditableFormat": "markdown",
      "HTML": "<p>Using Linux Mint 18.3</p>\n<pre><code>kv@kv-ideapad2 ~ $ sudo apt-get update\nkv@kv-ideapad2 ~ $ sudo apt-get install npm\nReading package lists... Done\nBuilding dependency tree       \nReading state information... Done\nnpm is already the newest version (3.5.2-0ubuntu4).\n0 upgraded, 0 newly installed, 0 to remove and 4 not upgraded.\n\nkv@kv-ideapad2 ~ $ sudo npm install squiffy -g\nnpm WARN deprecated minimatch@2.0.10: Please update to minimatch 3.0.2 or higher to avoid a RegExp DoS issue\n/usr/local/bin/squiffy -&gt; /usr/local/lib/node_modules/squiffy/squiffy.js\n/usr/local/lib\n└── squiffy@5.1.2 \n\nkv@kv-ideapad2 ~ $ squiffy\n/usr/bin/env: ‘node\\r’: No such file or directory\n\n\nkv@kv-ideapad2 ~ $ sudo apt-get install dos2unix\nReading package lists... Done\nBuilding dependency tree       \nReading state information... Done\nThe following NEW packages will be installed:\n  dos2unix\n0 upgraded, 1 newly installed, 0 to remove and 4 not upgraded.\nNeed to get 68.7 kB of archives.\nAfter this operation, 306 kB of additional disk space will be used.\nGet:1 http://archive.ubuntu.com/ubuntu xenial/universe amd64 dos2unix amd64 6.0.4-1 [68.7 kB]\nFetched 68.7 kB in 4s (16.8 kB/s)   \nSelecting previously unselected package dos2unix.\n(Reading database ... 257116 files and directories currently installed.)\nPreparing to unpack .../dos2unix_6.0.4-1_amd64.deb ...\nUnpacking dos2unix (6.0.4-1) ...\nProcessing triggers for man-db (2.7.5-1) ...\nSetting up dos2unix (6.0.4-1) ...\n\n\nkv@kv-ideapad2 ~ $ sudo dos2unix /usr/local/lib/node_modules/squiffy/squiffy.js \ndos2unix: converting file /usr/local/lib/node_modules/squiffy/squiffy.js to Unix format ...\nkv@kv-ideapad2 ~ $ squiffy\nSquiffy 5.1.2\nCompiles a Squiffy script file into HTML and JavaScript.\nFor help, see http://docs.textadventures.co.uk/squiffy/\nUsage: /usr/local/bin/squiffy filename.squiffy [options]\n\nOptions:\n  -c, --cdn     Use CDN for jQuery                                                          \n  -s, --serve   Start HTTP server after compiling                                           \n  -p, --port    Port for HTTP server (only with --serve)                                    \n  --scriptonly  Only generate JavaScript file (and optionally specify a name)               \n  --pluginname  Specify the jQuery plugin name instead of .questkit (only with --scriptonly)\n  --zip         Create zip file                                                             \n\nNot enough non-option arguments: got 0, need at least 1\n\n\nkv@kv-ideapad2 ~ $ cd Documents/\n\nkv@kv-ideapad2 ~/Documents/audio_game_squiffycli $ ffmpeg -f pulse -i default sndeffect.ogg\nffmpeg version 2.8.11-0ubuntu0.16.04.1 Copyright (c) 2000-2017 the FFmpeg developers\n  built with gcc 5.4.0 (Ubuntu 5.4.0-6ubuntu1~16.04.4) 20160609\n  \n  ...\n  \n  libavutil      54. 31.100 / 54. 31.100\n  libavcodec     56. 60.100 / 56. 60.100\n  libavformat    56. 40.101 / 56. 40.101\n  libavdevice    56.  4.100 / 56.  4.100\n  libavfilter     5. 40.101 /  5. 40.101\n  libavresample   2.  1.  0 /  2.  1.  0\n  libswscale      3.  1.101 /  3.  1.101\n  libswresample   1.  2.101 /  1.  2.101\n  libpostproc    53.  3.100 / 53.  3.100\nGuessed Channel Layout for  Input Stream #0.0 : stereo\nInput #0, pulse, from 'default':\n  Duration: N/A, start: 1522693606.088527, bitrate: 1536 kb/s\n    Stream #0:0: Audio: pcm_s16le, 48000 Hz, 2 channels, s16, 1536 kb/s\nOutput #0, ogg, to 'output.ogg':\n  Metadata:\n    encoder         : Lavf56.40.101\n    Stream #0:0: Audio: vorbis (libvorbis), 48000 Hz, stereo, fltp\n    Metadata:\n      encoder         : Lavc56.60.100 libvorbis\nStream mapping:\n  Stream #0:0 -&gt; #0:0 (pcm_s16le (native) -&gt; vorbis (libvorbis))\nPress [q] to stop, [?] for help\n[output stream 0:0 @ 0x1c2a520] 100 buffers queued in output stream 0:0, something may be wrong.\nsize=      31kB time=00:00:02.38 bitrate= 106.5kbits/s    \nvideo:0kB audio:27kB subtitle:0kB other streams:0kB global headers:4kB muxing overhead: 15.323137%\nExiting normally, received signal 2.\n\n\n\nkv@kv-ideapad2 ~/Documents $ mkdir audio_game_squiffycli\nkv@kv-ideapad2 ~/Documents $ mv sndeffect.ogg audio_game_squiffycli/\nkv@kv-ideapad2 ~/Documents $ cd audio_game_squiffycli/\nkv@kv-ideapad2 ~/Documents/audio_game_squiffycli $ ls\nsndeffect.ogg\n\nkv@kv-ideapad2 ~/Documents/audio_game_squiffycli $ echo -e \"[[start]]:\\n    ogg = new Audio();\\n    ogg.src = \\\"sndeffect.ogg\\\";\\n    ogg.load();\\n    ogg.controls = true;\\n    ogg.play();\\n    jQuery(\\\"#squiffy-container\\\").append(ogg);\\nHello.\" &gt; game.squiffy\nkv@kv-ideapad2 ~/Documents/audio_game_squiffycli $ cat game.squiffy \n[[start]]:\n    ogg = new Audio();\n    ogg.src = \"sndeffect.ogg\";\n    ogg.load();\n    ogg.controls = true;\n    ogg.play();\n    jQuery(\"#squiffy-container\").append(ogg);\nHello.\n\nkv@kv-ideapad2 ~/Documents/audio_game_squiffycli $ squiffy game.squiffy -s\nSquiffy 5.1.2\nLoading /home/kv/Documents/audio_game_squiffycli/game.squiffy\nWriting story.js\nWriting index.html\nWriting style.css\nDone.\nStarted http://localhost:8282/\n^C\nkv@kv-ideapad2 ~/Documents/audio_game_squiffycli $ 7za a audio_game_squiffycli.zip *\n\n7-Zip (A) [64] 9.20  Copyright (c) 1999-2010 Igor Pavlov  2010-11-18\np7zip Version 9.20 (locale=en_US.UTF-8,Utf16=on,HugeFiles=on,2 CPUs)\nScanning\n\nCreating archive audio_game_squiffycli.zip\n\nCompressing  game.squiffy      \nCompressing  index.html      \nCompressing  jquery.min.js      \nCompressing  sndeffect.ogg      \nCompressing  story.js      \nCompressing  style.css      \n\nEverything is Ok\n\nkv@kv-ideapad2 ~/Documents/audio_game_squiffycli $ ls\naudio_game_squiffycli.zip  game.squiffy  index.html  jquery.min.js  sndeffect.ogg  story.js  style.css\n\n\nkv@kv-ideapad2 ~/Documents/audio_game_squiffycli $ elinks http://textadventures.co.uk/submit/submitfile\n                                                                                                                                                    Submit a Game (1/2) \n   Link: manifest                                                                                                                                                       \n   Toggle navigation  [IMG]                                                                                                                                             \n                                                                                                                                                                        \n     *&nbsp;Play                                                                                                                                                             \n     *&nbsp;Create                                                                                                                                                           \n     *&nbsp;Forums                                                                                                                                                           \n                                                                                                                                                                        \n   [IMG] Help! My Profile Log off &nbsp;(0)                                                                                                                                  \n                                                                                                                                                                        \n     *&nbsp;My Games                                                                                                                                                         \n     *&nbsp;Quest                                                                                                                                                            \n     *&nbsp;Squiffy                                                                                                                                                          \n     *&nbsp;Upload Game                                                                                                                                                      \n                                                                                                                                                                        \nSubmit a Game to textadventures.co.uk                                                                                                                                   \n                                                                                                                                                                        \n   Game files we accept:                                                                                                                                                \n                                                                                                                                                                        \n     *&nbsp;Games written for the Quest text adventure game system - file types .quest, .cas                                                                                 \n     *&nbsp;HTML text-based games (e.g. output from Squiffy, Twine, Inform etc.) - file types .html, .zip                                                                    \n     *&nbsp;Inform Z-machine or Blorb games - file types .z5, .z8, .ulx, .zblorb, .gblorb                                                                                    \n                                                                                                                                                                        \n   Any other type of file or game will be deleted. All uploads are checked by a moderator. If you have any questions before uploading, please contact us.               \n                                                                                                                                                                        \n   Want to know more? Find out more about submitting a game                                                                                                             \n                                                                                                                                                                        \n   Submitting an update? This page is for submitting new games only. To submit an update, go to your game listing first and click the \"Edit this game\" button.          \n                                                                                                                                                                        \n   Submitting a Quest game? If your game is created using Quest 5, it must be a .quest file. To create one in the Editor, click the Tools menu and then Publish.        \n                                                                                                                                                                        \n   Submitting an HTML game? You can either upload a single self-contained .html file, or a .zip file containing all HTML, graphics and stylesheets your game            \n   requires.                                                                                                                                                            \n                                                                                                                                                                        \n   By uploading a game here, you agree to the following:                                                                                                                \n                                                                                                                                                                        \n     *&nbsp;you are the author of this game, or have the author's permission to upload it for them                                                                           \n     *&nbsp;if there is any copyrighted material in the game, you have permission to use it                                                                                  \n     *&nbsp;we can distribute this game on textadventures.co.uk and activelit.com                                                                                            \n                                                                                                                                                                        \n   In return, we promise:                                                                                                                                               \n                                                                                                                                                                        \n     *&nbsp;you keep all the copyright in the game                                                                                                                           \n     *&nbsp;we will use your submission solely to make it available on our websites, and always freely                                                                       \n            \n                                                                                                                                                    Submit a Game (2/2) \n     *&nbsp;we will never sell or modify your game                                                                                                                           \n     *&nbsp;you'll always be credited as the author                                                                                                                          \n                                                                                                                                                                        \n   _game_squiffycli.zip_                                                                                                                                                \n   Upload                                                                                                                                                               \n                                                                                                                                                                        \n   ──────────────────────────────────────────────────────────────────────────────────────────────────────────────────────────────────────────────────────────────────   \n                                                                                                                                                                        \n    Connect                                                                                                                                                             \n                                                                                                                                                                        \n   [IMG] Follow us on Facebook                                                                                                                                          \n   [IMG] Follow @TextAdv on Twitter                                                                                                                                     \n                                                                                                                                                                        \n    Products                                                                                                                                                            \n                                                                                                                                                                        \n   Quest                                                                                                                                                                \n   Squiffy                                                                                                                                                              \n   ActiveLit                                                                                                                                                            \n                                                                                                                                                                        \n    Resources                                                                                                                                                           \n                                                                                                                                                                        \n   Documentation                                                                                                                                                        \n   Blog                                                                                                                                                                 \n   GitHub                                                                                                                                                               \n                                                                                                                                                                        \n    Support                                                                                                                                                             \n                                                                                                                                                                        \n   Forums                                                                                                                                                               \n                                                                                                                                                                        \n   ──────────────────────────────────────────────────────────────────────────────────────────────────────────────────────────────────────────────────────────────────   \n                                                                                                                                                                        \n   © 2018 textadventures.co.uk · Privacy · Help · Contact us · Submit a game                                                                                            \n\n\n\n                                                                                                                                                     Game Details (2/2) \n   Publish                                                                                                                                                              \n   By ticking the box below, you agree to the following:                                                                                                                \n                                                                                                                                                                        \n     *&nbsp;you are the author of this game, or have the author's permission to upload it for them                                                                           \n     *&nbsp;if there is any copyrighted material in the game, you have permission to use it                                                                                  \n     *&nbsp;we can distribute this game on textadventures.co.uk and activelit.com                                                                                            \n                                                                                                                                                                        \n   In return, we promise:                                                                                                                                               \n                                                                                                                                                                        \n     *&nbsp;you keep all the copyright in the game                                                                                                                           \n     *&nbsp;we will use your submission solely to make it available on our websites, and always freely                                                                       \n     *&nbsp;we will never sell or modify your game                                                                                                                           \n     *&nbsp;you'll always be credited as the author                                                                                                                          \n                                                                                                                                                                        \n   [X] I agree to the above terms and conditions                                                                                                                        \n                                                                                                                                                                        \n   Publish                                                                                                                                                              \n                                                                                                                                                                        \n   ──────────────────────────────────────────────────────────────────────────────────────────────────────────────────────────────────────────────────────────────────   \n                                                                                                                                                                        \n    Connect                                                                                                                                                             \n                                                                                                                                                                        \n   [IMG] Follow us on Facebook                                                                                                                                          \n   [IMG] Follow @TextAdv on Twitter                                                                                                                                     \n                                                                                                                                                                        \n    Products                                                                                                                                                            \n                                                                                                                                                                        \n   Quest                                                                                                                                                                \n   Squiffy                                                                                                                                                              \n   ActiveLit                                                                                                                                                            \n                                                                                                                                                                        \n    Resources                                                                                                                                                           \n                                                                                                                                                                        \n   Documentation                                                                                                                                                        \n   Blog                                                                                                                                                                 \n   GitHub                                                                                                                                                               \n                                                                                                                                                                        \n    Support                                                                                                                                                             \n                                                                                                                                                                        \n   Forums                                                                                                                                                               \n                                                                                                                                                                        \n   ──────────────────────────────────────────────────────────────────────────────────────────────────────────────────────────────────────────────────────────────────   \n                                                                                                                                                                        \nPost form to http://textadventures.co.uk/submit/gamedetails                                                                                                            \n\n\nkv@kv-ideapad2 ~/Documents/audio_game_squiffycli $ \n</code></pre>\n<hr>\n<p>http://textadventures.co.uk/games/view/ra0-jwthzk6ccbohn8or8w/squiffy-audio-example</p>\n<hr>\n<p>I was bored.  What can I say?</p>\n\n",
      "PostDate": "2018-04-02T19:24:20.8897216Z",
      "LastEditDate": "2018-04-02T19:27:00.8365191Z",
      "link": null
    }
  ]
}
